# File created by Blade
# Date/Time:  Mon Sep 29 17:58:21 2014
# Frame Rate: 120.000 fps
#------------------------------------------------------
:FULLY-SPECIFIED
:DEGREES
1376
root -0.990753 3.626106 -7.025017 -28.812925 -6.567339 14.939171
Spine 30.242884 23.816636 -8.578297
Head 9.826831 -0.010232 -16.269874
LeftShoulder -8.604130 24.270734 11.021680
LeftArm 11.163650 29.662900 -86.047876
LeftForeArm -44.591607 -0.000000 7.543417
LeftHand -54.032071 -0.000000 75.296113
LeftHandThumb1 -26.253704 0.000000 33.147579
RightShoulder -1.379461 30.086335 -30.364829
RightArm 31.738477 -13.862972 36.906998
RightForeArm -10.255063 0.000000 56.456839
RightHand -6.095965 -0.000000 9.608897
RightHandThumb1 -24.326973 -0.000000 -32.862282
LeftUpLeg -106.963151 -10.549259 -31.662607
LeftLeg 124.104983 -0.000000 -0.000000
LeftFoot 3.553262 12.908204 -13.395095
LeftToeBase 5.209866 -0.000000 -0.000000
RightUpLeg -56.594728 16.081436 8.353000
RightLeg 6.435819 -0.000000 -0.000000
RightFoot 35.744753 0.541726 16.222433
RightToeBase -2.234819 -0.000000 0.000000
1377
root -1.002338 3.645328 -7.016449 -28.934999 -6.900731 15.051743
Spine 30.081698 24.180946 -8.865456
Head 9.868427 0.152617 -16.173751
LeftShoulder -8.575474 24.371761 11.217411
LeftArm 11.057286 29.216031 -86.270021
LeftForeArm -44.390643 -0.000000 7.560244
LeftHand -54.230539 -0.000000 75.381705
LeftHandThumb1 -26.253704 0.000000 33.147579
RightShoulder -1.051571 30.473331 -30.454684
RightArm 33.019216 -13.304535 37.463216
RightForeArm -10.413802 -0.000000 55.057721
RightHand -5.813834 0.000000 9.574824
RightHandThumb1 -24.326973 -0.000000 -32.862282
LeftUpLeg -107.034174 -10.537119 -31.221838
LeftLeg 124.177511 -0.000000 -0.000000
LeftFoot 3.474777 13.033292 -13.567610
LeftToeBase 5.262909 -0.000000 -0.000000
RightUpLeg -56.345918 16.254009 8.638990
RightLeg 6.436557 -0.000000 -0.000000
RightFoot 35.534258 0.286739 16.877782
RightToeBase -1.995856 -0.000000 0.000000
1378
root -1.015148 3.666036 -7.005672 -29.043173 -7.227869 15.154593
Spine 29.924340 24.559216 -9.133124
Head 9.877714 0.314686 -16.043441
LeftShoulder -8.517972 24.415033 11.410993
LeftArm 10.912013 28.877908 -86.467898
LeftForeArm -44.316394 -0.000000 7.552388
LeftHand -54.115717 -0.000000 75.461871
LeftHandThumb1 -26.253704 0.000000 33.147579
RightShoulder -0.839954 31.132253 -30.603051
RightArm 34.139224 -13.001763 38.206225
RightForeArm -10.585302 -0.000000 53.646044
RightHand -5.568119 -0.000000 9.528144
RightHandThumb1 -24.326973 -0.000000 -32.862282
LeftUpLeg -107.091004 -10.563809 -30.776293
LeftLeg 124.252280 -0.000000 -0.000000
LeftFoot 3.332234 13.229639 -13.690743
LeftToeBase 5.429990 -0.000000 -0.000000
RightUpLeg -56.090142 16.386952 8.950998
RightLeg 6.359877 -0.000000 -0.000000
RightFoot 35.630370 0.314362 17.112643
RightToeBase -2.188174 -0.000000 0.000000
1379
root -1.029328 3.685296 -6.995363 -29.179426 -7.559977 15.279492
Spine 29.739104 24.765892 -9.491729
Head 9.933072 0.642784 -16.031975
LeftShoulder -8.601309 24.526446 11.530992
LeftArm 10.782408 28.588072 -86.648128
LeftForeArm -44.317739 -0.000000 7.551048
LeftHand -54.090266 -0.000000 75.568582
LeftHandThumb1 -26.253704 0.000000 33.147579
RightShoulder -0.183724 31.554308 -30.640328
RightArm 35.164287 -12.326610 39.035456
RightForeArm -10.680823 -0.000000 52.303979
RightHand -5.178465 0.000000 9.366173
RightHandThumb1 -24.326973 -0.000000 -32.862282
LeftUpLeg -107.148865 -10.594729 -30.309580
LeftLeg 124.330513 -0.000000 -0.000000
LeftFoot 3.226429 13.422622 -13.808683
LeftToeBase 5.658728 -0.000000 -0.000000
RightUpLeg -55.765419 16.498514 9.331915
RightLeg 6.264346 -0.000000 -0.000000
RightFoot 35.586140 0.502108 16.948986
RightToeBase -1.866361 -0.000000 0.000000
1380
root -1.047530 3.706775 -6.979525 -29.293576 -7.880035 15.370365
Spine 29.589237 25.135355 -9.733057
Head 9.957962 0.767300 -15.986918
LeftShoulder -8.507034 24.561854 11.692522
LeftArm 10.629466 28.382206 -86.752733
LeftForeArm -44.352180 -0.000000 7.570665
LeftHand -54.081294 -0.000000 75.692546
LeftHandThumb1 -26.253704 0.000000 33.147579
RightShoulder 0.059513 31.906396 -30.672199
RightArm 36.430631 -11.773217 39.843616
RightForeArm -10.857816 -0.000000 50.819325
RightHand -4.817356 -0.000000 9.436382
RightHandThumb1 -24.326973 -0.000000 -32.862282
LeftUpLeg -107.190556 -10.635137 -29.863425
LeftLeg 124.417840 -0.000000 -0.000000
LeftFoot 3.098824 13.620247 -13.938900
LeftToeBase 5.775871 -0.000000 -0.000000
RightUpLeg -55.484297 16.591901 9.705972
RightLeg 6.240447 -0.000000 -0.000000
RightFoot 35.440219 0.614352 16.956057
RightToeBase -1.783779 -0.000000 0.000000
1381
root -1.065063 3.725810 -6.962994 -29.405297 -8.199371 15.479722
Spine 29.419867 25.499184 -9.992058
Head 10.028232 0.933665 -15.870713
LeftShoulder -8.416597 24.609741 11.870525
LeftArm 10.488960 28.224466 -86.852826
LeftForeArm -44.463441 0.000000 7.582229
LeftHand -54.059999 -0.000000 75.762539
LeftHandThumb1 -26.253704 0.000000 33.147579
RightShoulder 0.474493 32.596474 -30.775456
RightArm 37.174291 -11.366315 40.972276
RightForeArm -10.934086 -0.000000 49.441501
RightHand -4.507805 -0.000000 9.448173
RightHandThumb1 -24.326973 -0.000000 -32.862282
LeftUpLeg -107.263881 -10.711106 -29.401427
LeftLeg 124.501447 -0.000000 -0.000000
LeftFoot 3.000363 13.858677 -14.071299
LeftToeBase 6.147918 -0.000000 -0.000000
RightUpLeg -55.216470 16.681598 10.070745
RightLeg 6.233729 -0.000000 -0.000000
RightFoot 35.226508 0.571562 16.920922
RightToeBase -1.794534 -0.000000 0.000000
1382
root -1.080560 3.744148 -6.934792 -29.572870 -8.568284 15.575873
Spine 29.345466 25.907047 -10.112909
Head 10.022168 1.039307 -15.921482
LeftShoulder -8.338041 24.598057 11.994133
LeftArm 10.288968 28.124436 -86.961534
LeftForeArm -44.551686 -0.000000 7.603584
LeftHand -54.026428 0.000000 75.845822
LeftHandThumb1 -26.253704 0.000000 33.147579
RightShoulder 0.808504 33.210993 -30.916447
RightArm 38.004976 -10.965768 42.101140
RightForeArm -10.884090 -0.000000 48.010111
RightHand -4.087942 -0.000000 9.282616
RightHandThumb1 -24.326973 -0.000000 -32.862282
LeftUpLeg -107.319237 -10.798063 -28.858935
LeftLeg 124.630329 -0.000000 -0.000000
LeftFoot 2.848598 14.061282 -14.451439
LeftToeBase 6.290876 -0.000000 -0.000000
RightUpLeg -54.895317 16.751418 10.542526
RightLeg 6.330475 -0.000000 -0.000000
RightFoot 34.846833 0.406667 17.231764
RightToeBase -1.094458 -0.000000 0.000000
1383
root -1.096931 3.763889 -6.912775 -29.699242 -8.864346 15.720497
Spine 29.204173 26.285062 -10.377158
Head 10.067766 1.098511 -15.931831
LeftShoulder -8.214984 24.545671 12.172642
LeftArm 10.028194 27.963283 -87.090676
LeftForeArm -44.613959 -0.000000 7.641780
LeftHand -54.020790 -0.000000 75.910251
LeftHandThumb1 -26.253704 0.000000 33.147579
RightShoulder 1.194973 33.649038 -30.899631
RightArm 38.982162 -10.414211 43.203266
RightForeArm -10.900664 0.000000 46.558735
RightHand -4.051979 -0.000000 9.062425
RightHandThumb1 -24.326973 -0.000000 -32.862282
LeftUpLeg -107.376929 -10.903270 -28.396082
LeftLeg 124.731790 -0.000000 -0.000000
LeftFoot 2.685751 14.270694 -14.695585
LeftToeBase 6.696169 -0.000000 -0.000000
RightUpLeg -54.612025 16.785163 10.901385
RightLeg 6.340821 -0.000000 -0.000000
RightFoot 34.682299 0.077095 17.716735
RightToeBase -1.092467 -0.000000 0.000000
1384
root -1.116427 3.782841 -6.890988 -29.796343 -9.143249 15.867237
Spine 29.045958 26.734742 -10.658381
Head 10.115357 1.108666 -15.833748
LeftShoulder -8.042675 24.524682 12.403372
LeftArm 9.838298 27.816328 -87.185681
LeftForeArm -44.802370 -0.000000 7.681914
LeftHand -53.752953 -0.000000 75.996624
LeftHandThumb1 -26.253704 0.000000 33.147579
RightShoulder 1.531577 33.935558 -30.771031
RightArm 40.080036 -9.904318 44.125732
RightForeArm -10.693882 -0.000000 45.055366
RightHand -3.800836 -0.000000 8.851267
RightHandThumb1 -24.326973 -0.000000 -32.862282
LeftUpLeg -107.456775 -11.010229 -27.929153
LeftLeg 124.844763 -0.000000 -0.000000
LeftFoot 2.539520 14.421250 -14.983656
LeftToeBase 7.027132 -0.000000 -0.000000
RightUpLeg -54.403853 16.788175 11.261770
RightLeg 6.449952 -0.000000 -0.000000
RightFoot 34.528875 -0.105367 17.914365
RightToeBase -1.264791 -0.000000 0.000000
